<svg xmlns="http://www.w3.org/2000/svg" width="800" height="800" fill="none" viewBox="0 0 800 800"><g clip-path="url(#clip0_271_4494)"><path fill="#a4c639" d="M400 0C179.063 0 0 179.063 0 400C0 620.937 179.063 800 400 800C620.937 800 800 620.937 800 400C800 179.063 620.937 0 400 0ZM649.687 649.531C617.187 682.031 579.531 707.5 537.5 725.156C494.063 743.594 447.813 752.812 400 752.812C352.344 752.812 306.094 743.438 262.5 725.156C220.469 707.344 182.656 681.875 150.312 649.531C117.812 617.031 92.3437 579.375 74.6875 537.344C56.25 493.906 46.875 447.656 46.875 400C46.875 352.344 56.25 306.094 74.5313 262.5C92.3438 220.469 117.812 182.656 150.156 150.312C182.812 117.812 220.469 92.3438 262.5 74.5313C306.094 56.25 352.344 46.875 400 46.875C447.656 46.875 493.906 56.25 537.5 74.5313C579.531 92.3438 617.344 117.812 649.687 150.156C682.187 182.656 707.656 220.312 725.313 262.344C743.75 305.781 752.969 352.031 752.969 399.844C752.969 447.5 743.594 493.75 725.313 537.344C707.5 579.375 682.031 617.188 649.687 649.531Z"/><path fill="#a4c639" d="M459.688 234.844L464.063 228.281L468.437 221.875L478.125 207.344C479.375 205.625 478.906 203.125 477.031 202.031C475.312 200.781 472.812 201.25 471.719 203.125L461.406 218.594L457.031 225.156L452.656 231.719C438.594 226.25 423.125 223.281 406.563 223.281C390.156 223.281 374.531 226.25 360.469 231.719L356.094 225.156L351.719 218.594L341.406 203.125C340.156 201.406 337.813 200.937 336.094 202.031C334.375 203.281 333.906 205.625 335 207.344L344.688 221.875L349.062 228.281L353.438 234.844C320.625 250.156 298.281 279.062 298.281 312.344H515C514.844 279.062 492.656 250.156 459.688 234.844ZM360 281.25C353.594 281.25 348.438 276.094 348.438 269.687C348.438 263.281 353.594 258.125 360 258.125C366.406 258.125 371.563 263.281 371.563 269.687C371.563 276.094 366.406 281.25 360 281.25ZM452.812 281.25C446.406 281.25 441.25 276.094 441.25 269.687C441.25 263.281 446.406 258.125 452.812 258.125C459.219 258.125 464.375 263.281 464.375 269.687C464.531 276.094 459.375 281.25 452.812 281.25Z"/><path fill="#a4c639" d="M299.688 327.813H297.969V347.031V362.812V498.125C297.969 511.719 308.906 522.656 322.5 522.656H340.156C339.531 524.688 339.219 526.875 339.219 529.063V530.312V538.125V578.125C339.219 590.938 349.688 601.406 362.5 601.406C375.313 601.406 385.781 590.938 385.781 578.125V538.125V530.312V529.063C385.781 526.875 385.469 524.688 384.844 522.656H427.969C427.344 524.688 427.031 526.875 427.031 529.063V530.312V538.125V578.125C427.031 590.938 437.5 601.406 450.313 601.406C463.125 601.406 473.594 590.938 473.594 578.125V538.125V530.312V529.063C473.594 526.875 473.281 524.688 472.656 522.656H490.312C503.906 522.656 514.844 511.719 514.844 498.125V362.812V347.031V327.656H513.125H299.688V327.813Z"/><path fill="#a4c639" d="M259.375 327.812C246.562 327.812 236.094 338.281 236.094 351.094V450.469C236.094 463.281 246.562 473.75 259.375 473.75C272.187 473.75 282.656 463.281 282.656 450.469V351.094C282.5 338.125 272.187 327.812 259.375 327.812Z"/><path fill="#a4c639" d="M553.594 327.812C540.781 327.812 530.312 338.281 530.312 351.094V450.469C530.312 463.281 540.781 473.75 553.594 473.75C566.406 473.75 576.875 463.281 576.875 450.469V351.094C576.719 338.125 566.406 327.812 553.594 327.812Z"/></g><defs><clipPath id="clip0_271_4494"><rect width="800" height="800" fill="#fff"/></clipPath></defs></svg>