<svg width="10" height="15" viewBox="0 0 19 15" fill="none" xmlns="http://www.w3.org/2000/svg">
<path fill-rule="evenodd" clip-rule="evenodd" d="M18.5406 0.000940655L2.85548 0.000645708C2.73934 -0.00613683 2.62493 0.0407224 2.54074 0.131369C2.47517 0.20196 2.43312 0.293632 2.42032 0.396536L2.41748 0.502818V3.02676L2.24515 3.19318L0.456552 3.19251C0.335577 3.18206 0.215331 3.22894 0.127003 3.32285C0.0536307 3.40086 0.00876923 3.50457 0 3.62145L0.000282422 13.2688C0.0029068 13.4135 0.0214983 13.5574 0.0562103 13.6998C0.224364 14.436 0.898818 14.9999 1.79035 14.9999L16.7305 14.9999C17.6727 15.0086 18.5158 14.3904 18.848 13.4616L18.9356 13.168L18.9919 12.9486L19 0.359586C18.9528 0.204111 18.8437 0.086732 18.7102 0.033085L18.6274 0.00874974L18.5406 0.000940655ZM3.45957 0.947465L17.9549 0.949508L18.1272 1.11592L18.1271 12.5699C18.1342 12.9588 17.9916 13.3349 17.7304 13.6131C17.504 13.8542 17.205 14.0042 16.8872 14.0393L16.7269 14.0472H3.41313L3.24118 13.8697L3.27339 13.3212C3.30208 12.7169 3.30811 12.0969 3.30123 11.1291L3.28764 9.5355L3.28721 1.11388L3.45957 0.947465ZM2.42522 4.31428L2.25289 4.14787H1.0443L0.87197 4.31428V13.2125L0.877557 13.3354C0.907109 13.5785 1.04501 13.8005 1.25679 13.9288C1.50934 14.0817 1.82353 14.0748 2.06953 13.9111C2.30998 13.7511 2.44524 13.4681 2.42483 13.1747L2.42522 4.31428ZM5.57305 3.236L15.8403 3.23603C16.0514 3.2302 16.2395 3.39972 16.2757 3.64044C16.3124 3.88436 16.1801 4.11704 15.9736 4.18648C15.9214 4.20046 15.8579 4.20765 15.7944 4.20498L5.60398 4.20693C5.44831 4.21199 5.3049 4.12809 5.22239 3.98289C5.13698 3.83258 5.13165 3.64204 5.20869 3.48598C5.28332 3.3348 5.42259 3.24099 5.57305 3.236ZM15.8322 5.78867L5.57077 5.78827C5.46003 5.78057 5.35043 5.8244 5.26802 5.91103C5.1824 6.00103 5.13469 6.12842 5.1382 6.26991C5.13483 6.40576 5.18322 6.53619 5.27025 6.62918C5.35417 6.71883 5.46611 6.76541 5.58859 6.75951L15.883 6.75753L15.9524 6.74623C16.1617 6.68135 16.2992 6.4498 16.266 6.20333C16.2332 5.95976 16.0454 5.7855 15.8322 5.78867ZM7.2585 8.46096L7.25712 8.46382H9.42126C9.55419 8.4536 9.67183 8.49915 9.75904 8.59021C9.84959 8.68476 9.89771 8.81849 9.8893 8.95586L9.88899 11.4774C9.89702 11.6184 9.85111 11.7464 9.76485 11.8372C9.68186 11.9247 9.56992 11.9691 9.45677 11.9613L5.86124 11.9609C5.73324 11.969 5.61847 11.9236 5.53306 11.8345C5.4444 11.7419 5.3965 11.6116 5.40299 11.4769L5.40317 8.93708C5.39989 8.80392 5.44671 8.67983 5.53117 8.59057C5.61261 8.5045 5.72154 8.45859 5.83304 8.46171L7.2585 8.46096ZM8.87385 9.33834C8.78627 9.26413 8.66546 9.22616 8.5427 9.23427L8.22335 9.23308H6.73339C6.61762 9.23045 6.50568 9.26874 6.42379 9.33897C6.3419 9.40921 6.29726 9.50522 6.30033 9.60452V10.801C6.29419 10.9044 6.33978 11.0051 6.42565 11.0778C6.51152 11.1506 6.62949 11.1884 6.74994 11.1819H8.55925C8.6779 11.1885 8.79416 11.1511 8.87836 11.0791C8.96257 11.0071 9.0066 10.9075 8.99921 10.8057V9.62108C9.00717 9.5157 8.96143 9.41255 8.87385 9.33834ZM11.9512 8.46165L15.8063 8.4639C15.9732 8.45396 16.1237 8.54053 16.2081 8.6929C16.2954 8.85066 16.2954 9.05008 16.2081 9.20784C16.1237 9.36021 15.9732 9.44678 15.8171 9.43716L11.9022 9.43684C11.7009 9.43408 11.524 9.26522 11.493 9.03211C11.4534 8.78329 11.5849 8.5485 11.7919 8.47777C11.8371 8.46579 11.8942 8.4593 11.9512 8.46165ZM15.8084 11.0185L11.9496 11.0181C11.7935 11.0085 11.643 11.0951 11.5586 11.2475C11.4713 11.4052 11.4713 11.6046 11.5586 11.7624C11.643 11.9148 11.7935 12.0013 11.9601 11.9914L15.8084 11.9893C16.0428 11.9893 16.2394 11.7752 16.2394 11.5039C16.2394 11.2325 16.0428 11.0185 15.8084 11.0185Z" fill="white"/>
</svg>
