<svg xmlns="http://www.w3.org/2000/svg" width="22" height="22" fill="none" viewBox="0 0 22 22"><path fill="#848F99" d="M11 2C12.8633 2 14.375 3.5112 14.375 5.37385V5.50037C14.375 6.05213 13.9285 6.49846 13.3766 6.49846H8.62344C8.07148 6.49846 7.625 6.05213 7.625 5.50037V5.37385C7.625 3.5112 9.13672 2 11 2ZM3.45547 5.7042C3.89492 5.2649 4.60859 5.2649 5.04805 5.7042L7.29805 7.95343C7.32266 7.97803 7.34375 8.00264 7.36484 8.02724C7.86406 7.77068 8.43359 7.62659 9.03477 7.62659H12.9688C13.5699 7.62659 14.1359 7.77068 14.6387 8.02724C14.6598 8.00264 14.6809 7.97803 14.7055 7.95343L16.9555 5.7042C17.3949 5.2649 18.1086 5.2649 18.548 5.7042C18.9875 6.14351 18.9875 6.85693 18.548 7.29624L16.298 9.54547C16.2734 9.57007 16.2488 9.59116 16.2242 9.61224C16.4422 10.034 16.5793 10.5014 16.6145 11.0004H18.875C19.4973 11.0004 20 11.503 20 12.1251C20 12.7471 19.4973 13.2497 18.875 13.2497H16.625C16.625 14.1142 16.4316 14.9296 16.0836 15.6606C16.1609 15.7063 16.2312 15.7625 16.2945 15.8293L18.5445 18.0785C18.984 18.5178 18.984 19.2312 18.5445 19.6705C18.1051 20.1098 17.3914 20.1098 16.952 19.6705L14.7336 17.4529C13.8723 18.2191 12.7719 18.7251 11.559 18.8446V10.4346C11.559 10.1253 11.3059 9.87231 10.9965 9.87231C10.6871 9.87231 10.434 10.1253 10.434 10.4346V18.8411C9.22109 18.7216 8.1207 18.2156 7.25938 17.4494L5.04453 19.6635C4.60508 20.1028 3.89141 20.1028 3.45195 19.6635C3.0125 19.2242 3.0125 18.5108 3.45195 18.0715L5.70195 15.8222C5.76875 15.7555 5.83906 15.7027 5.91289 15.6535C5.56836 14.9261 5.375 14.1107 5.375 13.2462H3.125C2.50273 13.2462 2 12.7436 2 12.1215C2 11.4995 2.50273 10.9969 3.125 10.9969H5.38555C5.42422 10.5014 5.56133 10.0305 5.77578 9.60873C5.75117 9.58764 5.72656 9.56656 5.70195 9.54195L3.45195 7.29272C3.0125 6.85342 3.0125 6.13999 3.45195 5.70069L3.45547 5.7042Z"/></svg>