<svg width="50" height="50" viewBox="0 0 32 32" fill="none" xmlns="http://www.w3.org/2000/svg">
    <path d="M7.21429 3.5625V5.125H4.85714C3.5558 5.125 2.5 6.1748 2.5 7.46875V9.8125H24.5V7.46875C24.5 6.1748 23.4442 5.125 22.1429 5.125H19.7857V3.5625C19.7857 2.69824 19.0835 2 18.2143 2C17.3451 2 16.6429 2.69824 16.6429 3.5625V5.125H10.3571V3.5625C10.3571 2.69824 9.65491 2 8.78571 2C7.91652 2 7.21429 2.69824 7.21429 3.5625ZM24.5 11.375H2.5V24.6562C2.5 25.9502 3.5558 27 4.85714 27H22.1429C23.4442 27 24.5 25.9502 24.5 24.6562V11.375Z" fill="#000"/>
<path d="M11.3226 14C10.8667 14 10.5 14.3601 10.5 14.8077V16.4231C10.5 16.8707 10.8667 17.2308 11.3226 17.2308H12.9677C13.4236 17.2308 13.7903 16.8707 13.7903 16.4231V14.8077C13.7903 14.3601 13.4236 14 12.9677 14H11.3226ZM16.5323 14.5385C15.9256 14.5385 15.4355 15.0197 15.4355 15.6154C15.4355 16.2111 15.9256 16.6923 16.5323 16.6923H26.4032C27.0099 16.6923 27.5 16.2111 27.5 15.6154C27.5 15.0197 27.0099 14.5385 26.4032 14.5385H16.5323ZM16.5323 19.9231C15.9256 19.9231 15.4355 20.4043 15.4355 21C15.4355 21.5957 15.9256 22.0769 16.5323 22.0769H26.4032C27.0099 22.0769 27.5 21.5957 27.5 21C27.5 20.4043 27.0099 19.9231 26.4032 19.9231H16.5323ZM16.5323 25.3077C15.9256 25.3077 15.4355 25.7889 15.4355 26.3846C15.4355 26.9803 15.9256 27.4615 16.5323 27.4615H26.4032C27.0099 27.4615 27.5 26.9803 27.5 26.3846C27.5 25.7889 27.0099 25.3077 26.4032 25.3077H16.5323ZM10.5 20.1923V21.8077C10.5 22.2553 10.8667 22.6154 11.3226 22.6154H12.9677C13.4236 22.6154 13.7903 22.2553 13.7903 21.8077V20.1923C13.7903 19.7447 13.4236 19.3846 12.9677 19.3846H11.3226C10.8667 19.3846 10.5 19.7447 10.5 20.1923ZM11.3226 24.7692C10.8667 24.7692 10.5 25.1293 10.5 25.5769V27.1923C10.5 27.6399 10.8667 28 11.3226 28H12.9677C13.4236 28 13.7903 27.6399 13.7903 27.1923V25.5769C13.7903 25.1293 13.4236 24.7692 12.9677 24.7692H11.3226Z" fill="white"/>
<path fill-rule="evenodd" clip-rule="evenodd" d="M8.5 14.8077C8.5 13.2212 9.79676 12 11.3226 12H12.9677C13.7818 12 14.5307 12.3476 15.0522 12.9129C15.4951 12.6734 16.0008 12.5385 16.5323 12.5385H26.4032C28.0799 12.5385 29.5 13.8809 29.5 15.6154C29.5 16.7923 28.8462 17.7887 27.902 18.3077C28.8462 18.8267 29.5 19.8231 29.5 21C29.5 22.1769 28.8462 23.1733 27.902 23.6923C28.8462 24.2113 29.5 25.2077 29.5 26.3846C29.5 28.1191 28.0799 29.4615 26.4032 29.4615H16.5323C16.0008 29.4615 15.4951 29.3266 15.0522 29.0871C14.5307 29.6524 13.7818 30 12.9677 30H11.3226C9.79676 30 8.5 28.7788 8.5 27.1923V25.5769C8.5 24.842 8.77831 24.1854 9.22878 23.6923C8.77831 23.1992 8.5 22.5427 8.5 21.8077V20.1923C8.5 19.4574 8.77831 18.8008 9.22878 18.3077C8.77831 17.8146 8.5 17.158 8.5 16.4231V14.8077ZM13.6822 19.7906C13.5408 19.5476 13.2744 19.3846 12.9677 19.3846H11.3226C10.8667 19.3846 10.5 19.7447 10.5 20.1923V21.8077C10.5 22.2553 10.8667 22.6154 11.3226 22.6154H12.9677C13.2744 22.6154 13.5408 22.4524 13.6822 22.2094C13.7511 22.0912 13.7903 21.9542 13.7903 21.8077V20.1923C13.7903 20.0458 13.7511 19.9088 13.6822 19.7906ZM13.6822 25.1752C13.5408 24.9322 13.2744 24.7692 12.9677 24.7692H11.3226C10.8667 24.7692 10.5 25.1293 10.5 25.5769V27.1923C10.5 27.6399 10.8667 28 11.3226 28H12.9677C13.2744 28 13.5408 27.837 13.6822 27.594C13.7511 27.4759 13.7903 27.3388 13.7903 27.1923V25.5769C13.7903 25.4305 13.7511 25.2934 13.6822 25.1752ZM15.7903 25.5908C15.5721 25.7876 15.4355 26.0701 15.4355 26.3846C15.4355 26.6991 15.5721 26.9817 15.7903 27.1784C15.9855 27.3543 16.2459 27.4615 16.5323 27.4615H26.4032C27.0099 27.4615 27.5 26.9803 27.5 26.3846C27.5 25.7889 27.0099 25.3077 26.4032 25.3077H16.5323C16.2459 25.3077 15.9855 25.4149 15.7903 25.5908ZM15.7903 21.7938C15.9855 21.9697 16.2459 22.0769 16.5323 22.0769H26.4032C27.0099 22.0769 27.5 21.5957 27.5 21C27.5 20.4043 27.0099 19.9231 26.4032 19.9231H16.5323C16.2459 19.9231 15.9855 20.0303 15.7903 20.2062C15.5721 20.4029 15.4355 20.6855 15.4355 21C15.4355 21.3145 15.5721 21.5971 15.7903 21.7938ZM15.7903 16.4092C15.9855 16.5851 16.2459 16.6923 16.5323 16.6923H26.4032C27.0099 16.6923 27.5 16.2111 27.5 15.6154C27.5 15.0197 27.0099 14.5385 26.4032 14.5385H16.5323C16.2459 14.5385 15.9855 14.6457 15.7903 14.8216C15.5721 15.0183 15.4355 15.3009 15.4355 15.6154C15.4355 15.9299 15.5721 16.2124 15.7903 16.4092ZM13.6822 16.8248C13.7511 16.7066 13.7903 16.5695 13.7903 16.4231V14.8077C13.7903 14.6612 13.7511 14.5241 13.6822 14.406C13.5408 14.163 13.2744 14 12.9677 14H11.3226C10.8667 14 10.5 14.3601 10.5 14.8077V16.4231C10.5 16.8707 10.8667 17.2308 11.3226 17.2308H12.9677C13.2744 17.2308 13.5408 17.0678 13.6822 16.8248Z" fill="#000"/>
</svg>
