<svg width="50" height="50" viewBox="0 0 32 32" fill="none" xmlns="http://www.w3.org/2000/svg">
    <path d="M7.69964 3.48828V5.05078H5.34249C4.04116 5.05078 2.98535 6.10059 2.98535 7.39453V9.73828H24.9854V7.39453C24.9854 6.10059 23.9295 5.05078 22.6282 5.05078H20.2711V3.48828C20.2711 2.62402 19.5688 1.92578 18.6996 1.92578C17.8304 1.92578 17.1282 2.62402 17.1282 3.48828V5.05078H10.8425V3.48828C10.8425 2.62402 10.1403 1.92578 9.27107 1.92578C8.40187 1.92578 7.69964 2.62402 7.69964 3.48828ZM24.9854 11.3008H2.98535V24.582C2.98535 25.876 4.04116 26.9258 5.34249 26.9258H22.6282C23.9295 26.9258 24.9854 25.876 24.9854 24.582V11.3008Z" fill="#000"/>
    <path d="M9.86768 17.014V28.0434L15.603 26.2787L21.7794 28.0434L27.5147 25.8375V14.8081L21.7794 17.014L15.1618 14.8081L9.86768 17.014Z" fill="white"/>
    <path fill-rule="evenodd" clip-rule="evenodd" d="M8.36768 30.0743V16.014L15.1033 13.2074L21.7433 15.4207L29.0147 12.624V26.8677L21.8497 29.6235L15.6188 27.8432L8.36768 30.0743ZM15.603 26.2787L21.7794 28.0434L27.5147 25.8375V14.8081L21.7794 17.014L15.1618 14.8081L9.86768 17.014V28.0434L15.603 26.2787Z" fill="#000"/>
    <path d="M28.0466 14.0685C28.2657 14.2191 28.3971 14.4668 28.3971 14.7312V25.9781C28.3971 26.3128 28.1882 26.6107 27.8748 26.7279L22.213 28.8701C22.0377 28.9371 21.8456 28.9404 21.6704 28.8802L15.4728 26.8316L10.0806 28.8735C9.83125 28.9672 9.55153 28.9337 9.33247 28.7831C9.11342 28.6325 8.98535 28.3848 8.98535 28.1203V16.8735C8.98535 16.5388 9.19093 16.2408 9.50772 16.1237L15.1695 13.9814C15.3447 13.9145 15.5368 13.9111 15.7121 13.9714L21.9097 16.0199L27.3018 13.9781C27.5512 13.8844 27.8309 13.9178 28.05 14.0685H28.0466ZM10.603 17.4258V26.9521L14.6471 25.4224V15.8961L10.603 17.4258ZM21.1177 27.0057V17.4526L16.2648 15.8459V25.399L21.1177 27.0057ZM22.7354 26.9555L26.7795 25.4258V15.8994L22.7354 17.4258V26.9521V26.9555Z" fill="#000"/>
</svg>
