<svg width="50" height="50" viewBox="0 0 50 50" fill="none" xmlns="http://www.w3.org/2000/svg">
<circle cx="25" cy="25" r="22.5" fill="#FECE09" stroke="#FAF1CE" stroke-width="5"/>
<path d="M24.3874 34L26.7208 27H38.6126L36.2792 34H24.3874Z" stroke="#555555" stroke-width="2"/>
<circle cx="32.5" cy="17.5" r="3.75" stroke="#555555" stroke-width="1.5"/>
<circle cx="32.5" cy="17.5" r="1.5" fill="#555555"/>
<path d="M28 17.5L27 17.5" stroke="#555555" stroke-width="1.5" stroke-linecap="round"/>
<path d="M38 17.5L37 17.5" stroke="#555555" stroke-width="1.5" stroke-linecap="round"/>
<path d="M32.5 22L32.5 23" stroke="#555555" stroke-width="1.5" stroke-linecap="round"/>
<path d="M32.5 12L32.5 13" stroke="#555555" stroke-width="1.5" stroke-linecap="round"/>
<path d="M21.2172 22.8387C20.4915 23.5858 19.5135 24 18.5 24C17.4865 24 16.5085 23.5858 15.7828 22.8387C15.0561 22.0907 14.6429 21.0701 14.6429 20C14.6429 18.9299 15.0561 17.9093 15.7828 17.1613C16.5085 16.4142 17.4865 16 18.5 16C19.5135 16 20.4915 16.4142 21.2172 17.1613C21.9439 17.9093 22.3571 18.9299 22.3571 20C22.3571 21.0701 21.9439 22.0907 21.2172 22.8387ZM11 33.8398C11 30.5169 13.6075 27.875 16.7658 27.875H20.2342C20.8029 27.875 21.2517 28.1199 21.6959 28.6242C22.1694 29.1618 22.5646 29.9135 22.9949 30.7958C23.0404 30.889 23.0865 30.9842 23.1333 31.0809C23.5001 31.8388 23.9092 32.6842 24.3988 33.3462C24.5671 33.5737 24.758 33.7976 24.9748 34H11.127C11.0841 34 11 33.9557 11 33.8398Z" stroke="#555555" stroke-width="2"/>
</svg>
