<svg width="50" height="50" viewBox="0 0 50 50" fill="none" xmlns="http://www.w3.org/2000/svg">
<circle cx="25" cy="25" r="22.5" fill="#FECE09" stroke="#FAF1CE" stroke-width="5"/>
<path d="M25.2172 21.8387C24.4915 22.5858 23.5135 23 22.5 23C21.4865 23 20.5085 22.5858 19.7828 21.8387C19.0561 21.0907 18.6429 20.0701 18.6429 19C18.6429 17.9299 19.0561 16.9093 19.7828 16.1613C20.5085 15.4142 21.4865 15 22.5 15C23.5135 15 24.4915 15.4142 25.2172 16.1613C25.9439 16.9093 26.3571 17.9299 26.3571 19C26.3571 20.0701 25.9439 21.0907 25.2172 21.8387ZM15 32.8398C15 29.5169 17.6075 26.875 20.7658 26.875H24.2342C27.3917 26.875 30 29.524 30 32.8398C30 32.9557 29.9159 33 29.873 33H15.127C15.0841 33 15 32.9557 15 32.8398Z" stroke="#555555" stroke-width="2"/>
<path d="M37.9751 19.2545C38.0347 19.4245 37.9844 19.614 37.8557 19.7351L37.0482 20.5048C37.0687 20.6669 37.0799 20.833 37.0799 21.001C37.0799 21.169 37.0687 21.335 37.0482 21.4972L37.8557 22.2668C37.9844 22.388 38.0347 22.5775 37.9751 22.7474C37.893 22.9799 37.7941 23.2026 37.6804 23.4175L37.5927 23.5757C37.4696 23.7906 37.3316 23.9937 37.1806 24.1852C37.0705 24.3258 36.8878 24.3727 36.7236 24.318L35.6848 23.9723C35.4349 24.1735 35.1589 24.3415 34.8642 24.4685L34.6311 25.5839C34.5938 25.7617 34.4633 25.9023 34.2917 25.9316C34.0343 25.9766 33.7695 26 33.4991 26C33.2286 26 32.9638 25.9766 32.7064 25.9316C32.5349 25.9023 32.4043 25.7617 32.367 25.5839L32.1339 24.4685C31.8392 24.3415 31.5632 24.1735 31.3133 23.9723L30.2764 24.32C30.1122 24.3747 29.9295 24.3258 29.8194 24.1871C29.6684 23.9957 29.5304 23.7925 29.4073 23.5777L29.3196 23.4194C29.2059 23.2045 29.107 22.9818 29.0249 22.7494C28.9653 22.5794 29.0156 22.3899 29.1443 22.2688L29.9519 21.4991C29.9313 21.335 29.9201 21.169 29.9201 21.001C29.9201 20.833 29.9313 20.6669 29.9519 20.5048L29.1443 19.7351C29.0156 19.614 28.9653 19.4245 29.0249 19.2545C29.107 19.0221 29.2059 18.7994 29.3196 18.5845L29.4073 18.4263C29.5304 18.2114 29.6684 18.0082 29.8194 17.8168C29.9295 17.6761 30.1122 17.6292 30.2764 17.6839L31.3152 18.0297C31.5651 17.8285 31.8411 17.6605 32.1358 17.5335L32.3689 16.4181C32.4062 16.2403 32.5367 16.0996 32.7083 16.0703C32.9657 16.0234 33.2305 16 33.5009 16C33.7714 16 34.0362 16.0234 34.2936 16.0684C34.4651 16.0977 34.5957 16.2383 34.633 16.4161L34.8661 17.5315C35.1608 17.6585 35.4368 17.8265 35.6867 18.0277L36.7255 17.682C36.8896 17.6273 37.0724 17.6761 37.1824 17.8148C37.3335 18.0063 37.4715 18.2094 37.5946 18.4243L37.6822 18.5825C37.796 18.7974 37.8949 19.0201 37.9769 19.2526L37.9751 19.2545ZM33.5009 22.5638C33.8966 22.5638 34.2761 22.3991 34.5559 22.106C34.8357 21.813 34.9929 21.4155 34.9929 21.001C34.9929 20.5865 34.8357 20.189 34.5559 19.8959C34.2761 19.6028 33.8966 19.4382 33.5009 19.4382C33.1052 19.4382 32.7257 19.6028 32.4459 19.8959C32.1661 20.189 32.0089 20.5865 32.0089 21.001C32.0089 21.4155 32.1661 21.813 32.4459 22.106C32.7257 22.3991 33.1052 22.5638 33.5009 22.5638Z" fill="#555555"/>
</svg>
