<svg width="50" height="50" viewBox="0 0 50 50" fill="none" xmlns="http://www.w3.org/2000/svg">
<circle cx="25" cy="25" r="22.5" fill="#FECE09" stroke="#FAF1CE" stroke-width="5"/>
<path d="M24.2172 22.8387C23.4915 23.5858 22.5135 24 21.5 24C20.4865 24 19.5085 23.5858 18.7828 22.8387C18.0561 22.0907 17.6429 21.0701 17.6429 20C17.6429 18.9299 18.0561 17.9093 18.7828 17.1613C19.5085 16.4142 20.4865 16 21.5 16C22.5135 16 23.4915 16.4142 24.2172 17.1613C24.9439 17.9093 25.3571 18.9299 25.3571 20C25.3571 21.0701 24.9439 22.0907 24.2172 22.8387ZM14 33.8398C14 30.5169 16.6075 27.875 19.7658 27.875H23.2342C26.3917 27.875 29 30.524 29 33.8398C29 33.9557 28.9159 34 28.873 34H14.127C14.0841 34 14 33.9557 14 33.8398Z" stroke="#555555" stroke-width="2"/>
<path d="M35.4161 17.6536C34.8258 18.0198 34.0767 18.1168 33.3917 17.8475L32.1944 17.3767C31.723 17.1913 31.3532 16.832 31.1632 16.373L31.0547 16.1109L28.8747 15.9101C28.7297 15.8965 28.6045 15.8038 28.5565 15.6689C28.5085 15.534 28.541 15.3836 28.6443 15.2774L29.5161 14.3838C29.8567 14.0373 30.266 13.7613 30.7197 13.5734L31.1262 13.4051C31.9504 13.0639 32.8687 13.0388 33.6934 13.334L35.0716 13.8288C35.8196 14.0975 36.3167 14.7263 36.4401 15.4438L36.9375 15.6412L37.0455 15.3935C37.1723 15.1026 37.5137 14.9612 37.8068 15.0783L38.561 15.3749C38.8564 15.491 38.9927 15.8202 38.8649 16.109L37.6776 18.8329C37.5507 19.1238 37.2094 19.2652 36.9162 19.1481L36.162 18.8515C35.8666 18.7354 35.7303 18.4062 35.8581 18.1174L35.966 17.8698L35.4161 17.6536ZM27.9964 24.2668L31.4967 17.8837C31.6192 17.9573 31.7512 18.0219 31.8872 18.0772L33.0845 18.5479C33.273 18.6221 33.4634 18.6752 33.6564 18.7094L31.3745 25.5951C31.2049 26.1067 30.8117 26.5232 30.3041 26.7334C29.3564 27.1258 28.2839 26.7023 27.9064 25.7906C27.7038 25.3012 27.7379 24.7417 27.9964 24.2668Z" fill="#555555"/>
</svg>
