<svg width="34" height="33" viewBox="0 0 34 33" fill="none" xmlns="http://www.w3.org/2000/svg">
<path fill-rule="evenodd" clip-rule="evenodd" d="M23.7175 9.78246C21.9232 7.98815 19.5375 7 17 7C14.4625 7 12.0768 7.98815 10.2825 9.78246C8.48815 11.5768 7.5 13.9625 7.5 16.5C7.5 19.0375 8.48815 21.4232 10.2825 23.2175C12.0768 25.0119 14.4625 26 17 26C19.5375 26 21.9232 25.0119 23.7175 23.2175C25.5119 21.4232 26.5 19.0375 26.5 16.5C26.5 13.9625 25.5119 11.5768 23.7175 9.78246ZM14.4955 8.12312C13.9865 8.58153 13.5191 9.18411 13.1098 9.91962C12.776 10.5195 12.4933 11.1859 12.2654 11.9014H9.56729C10.6824 10.1057 12.4294 8.74195 14.4955 8.12312ZM9.14758 12.6584H12.0496C11.7756 13.7389 11.6193 14.9102 11.5922 16.1215H8.26568C8.31867 14.8836 8.63013 13.7117 9.14758 12.6584ZM8.26568 16.8785H11.5922C11.6193 18.0898 11.7757 19.2611 12.0496 20.3416H9.14758C8.63013 19.2883 8.31867 18.1164 8.26568 16.8785ZM9.56729 21.0986H12.2654C12.4933 21.8142 12.776 22.4805 13.1098 23.0804C13.519 23.8159 13.9865 24.4184 14.4955 24.8768C12.4294 24.258 10.6824 22.8943 9.56729 21.0986ZM16.6215 21.0986V25.1377C15.5597 24.9746 14.5592 24.1282 13.7713 22.7123C13.4973 22.2199 13.2603 21.6782 13.0621 21.0986H16.6215V21.0986ZM16.6215 20.3416H12.8313C12.5428 19.2717 12.3776 18.0982 12.3493 16.8785H16.6215V20.3416ZM16.6215 16.1215H12.3493C12.3777 14.9018 12.5428 13.7283 12.8313 12.6584H16.6215V16.1215ZM16.6215 11.9014H13.0621C13.2603 11.3217 13.4973 10.78 13.7713 10.2877C14.5592 8.8718 15.5597 8.02541 16.6215 7.86227V11.9014ZM24.4327 11.9014H21.7346C21.5067 11.1858 21.224 10.5195 20.8902 9.91962C20.481 9.18415 20.0135 8.5816 19.5045 8.12312C21.5706 8.74195 23.3176 10.1057 24.4327 11.9014ZM17.3785 11.9014V7.86227C18.4403 8.02541 19.4408 8.87176 20.2287 10.2877C20.5027 10.7801 20.7397 11.3218 20.9379 11.9014L17.3785 11.9014ZM17.3785 12.6584H21.1687C21.4572 13.7283 21.6224 14.9018 21.6507 16.1215H17.3785V12.6584ZM17.3785 16.8785H21.6507C21.6223 18.0982 21.4572 19.2717 21.1687 20.3416H17.3785V16.8785ZM17.3785 25.1377V21.0986H20.9379C20.7397 21.6783 20.5027 22.22 20.2287 22.7123C19.4408 24.1282 18.4403 24.9746 17.3785 25.1377ZM19.5045 24.8769C20.0135 24.4185 20.4809 23.8159 20.8902 23.0804C21.224 22.4805 21.5067 21.8142 21.7346 21.0986H24.4327C23.3176 22.8943 21.5706 24.258 19.5045 24.8769ZM21.9504 20.3416C22.2244 19.2611 22.3807 18.0898 22.4078 16.8785H23.5857C23.7947 16.8785 23.9641 16.709 23.9641 16.5C23.9641 16.291 23.7947 16.1215 23.5857 16.1215H22.4078C22.3807 14.9102 22.2243 13.7389 21.9504 12.6584H24.8524C25.4223 13.8186 25.743 15.1225 25.743 16.5C25.743 17.8775 25.4223 19.1814 24.8524 20.3416H21.9504Z" fill="white"/>
</svg>
