<svg width="50" height="50" viewBox="0 0 50 50" fill="none" xmlns="http://www.w3.org/2000/svg">
<circle cx="25" cy="25" r="22.5" fill="#FECE09" stroke="#FAF1CE" stroke-width="5"/>
<path fill-rule="evenodd" clip-rule="evenodd" d="M34.0508 11.8682L25.3812 13.6744C24.7602 13.8038 24.1772 13.3297 24.1772 12.6954V11.041C24.1772 10.4067 24.7602 9.93266 25.3812 10.062L29.114 10.8397L34.0508 11.8682ZM23.5028 14.6939C24.3761 14.2353 25.4191 14.2353 26.2924 14.6939L34.2296 18.862H34.8736C35.3281 18.862 35.6964 19.2304 35.6964 19.6848C35.6964 20.1392 35.3281 20.5076 34.8736 20.5076H15.1264C14.672 20.5076 14.3036 20.1392 14.3036 19.6848C14.3036 19.2304 14.672 18.862 15.1264 18.862H15.5656L23.5028 14.6939ZM13.4808 35.1123C13.4808 34.7715 13.7571 34.4952 14.0979 34.4952H35.9021C36.243 34.4952 36.5192 34.7715 36.5192 35.1123C36.5192 35.4531 36.243 35.7294 35.9021 35.7294H14.0979C13.7571 35.7294 13.4808 35.4531 13.4808 35.1123ZM19.2404 21.3304H15.9492V31.204H19.2404V21.3304ZM20.886 21.3304H24.1772V31.204H20.886V21.3304ZM29.114 21.3304H25.8228V31.204H29.114V21.3304ZM30.7596 21.3304H34.0508V31.204H30.7596V21.3304ZM14.9207 32.0268C14.5799 32.0268 14.3036 32.3031 14.3036 32.6439C14.3036 32.9847 14.5799 33.261 14.9207 33.261H35.0793C35.4202 33.261 35.6964 32.9847 35.6964 32.6439C35.6964 32.3031 35.4202 32.0268 35.0793 32.0268H14.9207Z" fill="#555555"/>
</svg>
