<svg width="34" height="34" viewBox="0 0 34 34" fill="none" xmlns="http://www.w3.org/2000/svg">
<path fill-rule="evenodd" clip-rule="evenodd" d="M23.7166 10.9222C23.8933 10.7456 23.8933 10.4591 23.7166 10.2825C20.0068 6.57245 13.9921 6.57245 10.2823 10.2825C6.57256 13.9925 6.57256 20.0076 10.2823 23.7176C13.9921 27.4276 20.0068 27.4276 23.7166 23.7176C26.8116 20.6224 27.3737 15.8388 25.1599 12.1327C25.0318 11.9182 24.7541 11.8482 24.5396 11.9763C24.3251 12.1044 24.2551 12.3822 24.3832 12.5967C26.3857 15.949 25.8771 20.2775 23.0769 23.0778C19.7204 26.4345 14.2785 26.4345 10.9221 23.0778C7.5656 19.7211 7.5656 14.2789 10.9221 10.9222C14.2785 7.56555 19.7204 7.56555 23.0769 10.9222C23.2536 11.0989 23.54 11.0989 23.7166 10.9222ZM18.1098 13.9327C18.3289 14.2346 18.4376 14.5907 18.4376 15.0007C18.4376 15.2941 18.3626 15.5763 18.2132 15.8491C18.1312 16.0035 18.0233 16.1528 17.8884 16.2952L17.4395 16.7919C17.009 17.2654 16.731 17.6849 16.6038 18.0521C16.4767 18.4183 16.4131 18.9013 16.4131 19.5001H17.412C17.412 18.9725 17.4656 18.5736 17.572 18.3034C17.6785 18.0332 17.9114 17.7038 18.2706 17.3134C18.7647 16.7773 19.0926 16.3707 19.2549 16.0944C19.4173 15.8182 19.4993 15.4579 19.4993 15.0135C19.4993 14.281 19.2779 13.6787 18.8344 13.2069C18.3909 12.7351 17.8011 12.5 17.0642 12.5C16.2675 12.5 15.6409 12.7754 15.1844 13.3262C14.7278 13.8769 14.4996 14.6043 14.4996 15.5094H15.4984C15.5168 14.9646 15.5942 14.5477 15.7283 14.2586C15.9672 13.7396 16.3993 13.4797 17.0243 13.4797C17.5291 13.4797 17.8915 13.6307 18.1098 13.9327ZM16.4411 20.9119H17.5587V22.0295H16.4411V20.9119Z" fill="white"/>
</svg>
