<svg width="800" height="800" viewBox="0 0 800 800" fill="none" xmlns="http://www.w3.org/2000/svg">
<g clip-path="url(#clip0_271_4492)">
<circle cx="400" cy="400" r="400" fill="black"/>
<circle cx="399.5" cy="399.5" r="351.5" fill="white"/>
<path d="M468.652 217.96C477.474 207.721 484.201 195.828 488.446 182.965C492.691 170.101 494.37 156.519 493.388 143C466.304 145.201 441.162 158.029 423.379 178.718C414.864 188.633 408.411 200.169 404.403 212.641C400.394 225.113 398.912 238.268 400.043 251.328C413.255 251.439 426.315 248.487 438.212 242.701C450.109 236.914 460.524 228.449 468.652 217.96ZM527.459 392.788C527.615 374.782 532.326 357.114 541.145 341.449C549.964 325.785 562.602 312.641 577.865 303.259C568.233 289.283 555.498 277.76 540.673 269.602C525.847 261.444 509.338 256.877 492.455 256.262C456.05 252.503 422.446 277.646 403.077 277.646C383.708 277.646 356.405 256.732 326.068 257.202C306.235 257.86 286.91 263.683 269.978 274.102C253.046 284.522 239.084 299.182 229.456 316.653C188.384 388.559 218.954 495.477 260.026 553.518C278.695 581.951 302.031 614.144 332.835 612.969C363.639 611.794 373.673 593.7 409.378 593.7C445.082 593.7 456.05 612.969 486.387 612.264C516.724 611.559 538.194 583.126 557.796 554.693C571.682 534.05 582.529 511.493 590 487.722C571.506 479.78 555.727 466.557 544.612 449.685C533.497 432.814 527.534 413.034 527.459 392.788Z" fill="black"/>
</g>
<defs>
<clipPath id="clip0_271_4492">
<rect width="800" height="800" fill="white"/>
</clipPath>
</defs>
</svg>
