<svg xmlns="http://www.w3.org/2000/svg" width="22" height="22" fill="none" viewBox="0 0 22 22">
    <path
        fill="#000000"
        fill-rule="evenodd"
        d="M18 3H4V19H18V3ZM7.94116 5H6V6.44446H7.94116V5ZM9.94116 5V6.44446H12.0588V5H9.94116ZM9.94116 8.44446H12.0588V10H9.94116V8.44446ZM14.0588 8.44446V10H16V8.44446H14.0588ZM9.94116 12H12.0588V13.5555H9.94116V12ZM14.0588 12V13.5555H16V12H14.0588ZM9.94116 15.5555H12.0588V17H9.94116V15.5555ZM14.0588 5V6.44446H16V5H14.0588ZM7.94116 8.44446H6V10H7.94116V8.44446ZM7.94116 12H6V13.5555H7.94116V12Z"
        clip-rule="evenodd"
    />
</svg>
