<svg width="35" height="35" viewBox="0 0 35 35" fill="#ffffff" xmlns="http://www.w3.org/2000/svg">
<path fill-rule="evenodd" clip-rule="evenodd" d="M23.9824 7.37122C24.2392 7.37122 24.4471 7.58034 24.4471 7.83835V26.7374C24.4471 26.9953 24.2391 27.2045 23.9824 27.2045H12.0785C11.8218 27.2045 11.6138 26.9953 11.6138 26.7374V7.83835C11.6138 7.58034 11.8217 7.37122 12.0785 7.37122H23.9824ZM12.5433 8.25245L12.4902 26.2703L23.5176 26.3233L23.5706 22.9998L14.3302 22.9468L14.3832 22.0656L23.5176 22.1186V8.30523L12.5433 8.25245ZM18.1081 23.8106C18.6448 23.8106 19.0797 24.2481 19.0797 24.7876C19.0797 25.3271 18.6448 25.7646 18.1081 25.7646C17.5714 25.7646 17.1364 25.3271 17.1364 24.7876C17.1364 24.2481 17.5714 23.8106 18.1081 23.8106Z" fill="white"/>
</svg>
