<svg width="50" height="50" viewBox="0 0 50 50" fill="none" xmlns="http://www.w3.org/2000/svg">
<circle cx="25" cy="25" r="22.5" fill="#FECE09" stroke="#FAF1CE" stroke-width="5"/>
<path d="M24.2172 22.8387C23.4915 23.5858 22.5135 24 21.5 24C20.4865 24 19.5085 23.5858 18.7828 22.8387C18.0561 22.0907 17.6429 21.0701 17.6429 20C17.6429 18.9299 18.0561 17.9093 18.7828 17.1613C19.5085 16.4142 20.4865 16 21.5 16C22.5135 16 23.4915 16.4142 24.2172 17.1613C24.9439 17.9093 25.3571 18.9299 25.3571 20C25.3571 21.0701 24.9439 22.0907 24.2172 22.8387ZM14 33.8398C14 30.5169 16.6075 27.875 19.7658 27.875H23.2342C26.3917 27.875 29 30.524 29 33.8398C29 33.9557 28.9159 34 28.873 34H14.127C14.0841 34 14 33.9557 14 33.8398Z" stroke="#555555" stroke-width="2"/>
<path d="M29.6361 24.2279C29.3697 24.5749 29.404 25.0644 29.7145 25.3718L31.122 26.7669C31.4013 27.0421 31.8301 27.0981 32.1687 26.9026C36.8237 24.2151 38.4189 18.2615 35.7314 13.6065C35.5359 13.2679 35.1366 13.102 34.757 13.2007L32.8405 13.7051C32.4179 13.8161 32.1435 14.2229 32.2007 14.6565L32.4909 16.8974C32.5401 17.2779 32.8338 17.5825 33.2122 17.6425L34.5786 17.8671C34.7169 19.5535 34.2636 21.2451 33.3007 22.6365L32.0069 22.1466C31.6473 22.0105 31.2425 22.1263 31.0097 22.4314L29.6379 24.2268L29.6361 24.2279Z" fill="#555555"/>
</svg>
