<svg xmlns="http://www.w3.org/2000/svg" width="128" height="128" fill="none" viewBox="0 0 128 128"><path fill="#231F20" d="M87.8264 0C72.8544 0 59.8634 6.781 53.3334 16.751H6.18539C3.41539 16.751 1.15039 19.017 1.15039 21.786V122.964C1.15039 125.734 3.41639 127.999 6.18539 127.999H71.2094C73.9794 127.999 76.2444 125.733 76.2444 122.964V73.92C81.9344 70.815 86.5334 66.87 89.4034 62.842C110.216 62.171 126.85 48.373 126.85 31.438C126.85 14.065 109.377 0 87.8264 0ZM38.6974 124.375C34.0984 124.375 30.3724 120.632 30.3724 116.033C30.3724 111.434 34.0984 107.708 38.6974 107.708C43.2964 107.708 47.0224 111.434 47.0224 116.033C47.0224 120.632 43.2964 124.375 38.6974 124.375ZM67.6004 103.729H9.79439V26.1H49.3894C49.0034 27.829 48.8184 29.608 48.8184 31.438C48.8184 42.163 55.4824 51.63 65.6534 57.286C66.6944 63.295 66.3244 71.385 60.5004 79.392C62.9514 78.972 65.3174 78.385 67.6004 77.63V103.729ZM78.8294 37.279C78.5774 37.833 78.2084 38.32 77.7044 38.722C77.3014 39.041 76.8144 39.326 76.2444 39.545C76.1104 39.595 75.9754 39.646 75.8414 39.679C75.1024 39.914 74.2464 40.032 73.2734 40.032C72.4844 40.032 71.7124 39.931 70.9744 39.73C70.2354 39.529 69.5984 39.226 69.0274 38.824C68.4734 38.404 68.0204 37.867 67.6844 37.23C67.6504 37.18 67.6174 37.112 67.6004 37.045C67.2984 36.458 67.1804 35.753 67.1804 34.947H70.2354C70.2354 35.434 70.3194 35.837 70.4874 36.172C70.6554 36.508 70.8904 36.776 71.1754 36.978C71.4604 37.196 71.7964 37.347 72.1824 37.448C72.5514 37.549 72.9544 37.599 73.3904 37.599C73.6754 37.599 73.9784 37.565 74.2964 37.532C74.6154 37.482 74.9174 37.381 75.1864 37.263C75.4714 37.129 75.7064 36.944 75.8914 36.709C76.0764 36.474 76.1764 36.172 76.1764 35.819C76.1764 35.433 76.0424 35.114 75.8074 34.879C75.5554 34.627 75.2364 34.426 74.8334 34.258C74.4304 34.09 73.9774 33.956 73.4734 33.838C72.9534 33.737 72.4494 33.603 71.9294 33.452C71.3924 33.318 70.8724 33.15 70.3684 32.965C69.8644 32.764 69.4114 32.512 69.0084 32.21C68.6054 31.908 68.2864 31.522 68.0344 31.069C67.7824 30.616 67.6654 30.062 67.6654 29.391C67.6654 28.652 67.8164 28.015 68.1354 27.478C68.4544 26.941 68.8574 26.488 69.3604 26.135C69.8804 25.766 70.4514 25.497 71.0894 25.329C71.7274 25.161 72.3654 25.077 73.0024 25.077C73.7574 25.077 74.4794 25.161 75.1504 25.329C75.5364 25.413 75.9054 25.53 76.2414 25.698C76.5104 25.815 76.7614 25.967 76.9964 26.134C77.5164 26.503 77.9534 26.973 78.2554 27.561C78.5744 28.148 78.7254 28.837 78.7254 29.676H75.6904C75.6564 29.24 75.5724 28.887 75.4214 28.619C75.2704 28.334 75.0684 28.115 74.8174 27.948C74.5654 27.797 74.2634 27.679 73.9274 27.612C73.5914 27.545 73.2394 27.511 72.8704 27.511C72.6184 27.511 72.3664 27.545 72.1154 27.595C71.8634 27.645 71.6284 27.746 71.4274 27.864C71.2094 27.998 71.0414 28.183 70.9074 28.384C70.7734 28.585 70.7064 28.837 70.7064 29.139C70.7064 29.408 70.7564 29.643 70.8744 29.81C70.9754 29.978 71.1934 30.146 71.4954 30.28C71.8144 30.414 72.2504 30.565 72.8044 30.716C73.3584 30.867 74.0804 31.068 74.9694 31.287C75.1374 31.337 75.3724 31.388 75.6574 31.455C75.8424 31.505 76.0434 31.573 76.2444 31.656C76.3454 31.69 76.4454 31.723 76.5464 31.757C76.8484 31.891 77.1674 32.059 77.4864 32.261C77.7884 32.446 78.0744 32.697 78.3424 33C78.6114 33.285 78.8124 33.638 78.9634 34.041C79.1314 34.444 79.2154 34.914 79.2154 35.451C79.2154 36.104 79.0814 36.708 78.8294 37.279ZM96.4534 39.696H93.5164V29.575H93.4824L89.9744 39.696H87.5574L84.0494 29.676H84.0154V39.696H81.0784V25.412H85.4924L88.8324 35.231H88.8824L92.0374 25.412H96.4514V39.696H96.4534ZM109.965 37.279C109.713 37.833 109.327 38.32 108.84 38.722C108.336 39.125 107.715 39.461 106.977 39.679C106.238 39.914 105.382 40.032 104.409 40.032C103.62 40.032 102.848 39.931 102.109 39.73C101.37 39.529 100.716 39.226 100.162 38.824C99.6084 38.404 99.1554 37.867 98.8024 37.23C98.4664 36.592 98.2984 35.837 98.3154 34.947H101.353C101.353 35.434 101.454 35.837 101.622 36.172C101.79 36.508 102.025 36.776 102.31 36.978C102.595 37.196 102.931 37.347 103.317 37.448C103.686 37.549 104.089 37.599 104.525 37.599C104.794 37.599 105.096 37.565 105.415 37.532C105.734 37.482 106.036 37.381 106.321 37.263C106.606 37.129 106.841 36.944 107.026 36.709C107.211 36.474 107.295 36.172 107.295 35.819C107.295 35.433 107.177 35.114 106.926 34.879C106.691 34.627 106.355 34.426 105.969 34.258C105.566 34.09 105.113 33.956 104.609 33.838C104.089 33.737 103.585 33.603 103.065 33.452C102.528 33.318 102.008 33.15 101.504 32.965C101 32.764 100.547 32.512 100.144 32.21C99.7414 31.908 99.4224 31.522 99.1704 31.069C98.9184 30.616 98.8014 30.062 98.8014 29.391C98.8014 28.652 98.9524 28.015 99.2714 27.478C99.5904 26.941 99.9934 26.488 100.496 26.135C101 25.766 101.587 25.497 102.225 25.329C102.863 25.161 103.501 25.077 104.138 25.077C104.893 25.077 105.598 25.161 106.286 25.329C106.974 25.48 107.578 25.749 108.115 26.135C108.652 26.504 109.072 26.974 109.391 27.562C109.71 28.149 109.861 28.838 109.861 29.677H106.823C106.789 29.241 106.706 28.888 106.554 28.62C106.403 28.335 106.185 28.116 105.933 27.949C105.681 27.798 105.396 27.68 105.06 27.613C104.724 27.546 104.372 27.512 104.003 27.512C103.751 27.512 103.499 27.546 103.231 27.596C102.979 27.646 102.761 27.747 102.543 27.865C102.342 27.999 102.174 28.184 102.039 28.385C101.905 28.586 101.838 28.838 101.838 29.14C101.838 29.409 101.888 29.644 102.006 29.811C102.107 29.979 102.308 30.147 102.627 30.281C102.946 30.415 103.382 30.566 103.936 30.717C104.49 30.868 105.212 31.069 106.101 31.288C106.269 31.338 106.504 31.389 106.772 31.456C107.057 31.54 107.359 31.641 107.662 31.758C107.981 31.892 108.3 32.06 108.619 32.262C108.921 32.447 109.207 32.698 109.475 33.001C109.727 33.286 109.945 33.639 110.096 34.042C110.264 34.445 110.348 34.915 110.348 35.452C110.351 36.104 110.217 36.708 109.965 37.279ZM44.9184 116.035C44.9184 119.472 42.1344 122.268 38.6974 122.268C35.2604 122.268 32.4764 119.471 32.4764 116.035C32.4764 112.598 35.2604 109.814 38.6974 109.814C42.1344 109.814 44.9184 112.598 44.9184 116.035Z"/><rect width="46" height="19" x="67" y="23" fill="#231F20"/><path fill="#fff" d="M65 30.5C63.6193 30.5 62.5 31.6193 62.5 33C62.5 34.3807 63.6193 35.5 65 35.5V30.5ZM110.768 34.7678C111.744 33.7915 111.744 32.2085 110.768 31.2322L94.8579 15.3223C93.8816 14.346 92.2986 14.346 91.3223 15.3223C90.346 16.2986 90.346 17.8816 91.3223 18.8579L105.464 33L91.3223 47.1421C90.346 48.1184 90.346 49.7014 91.3223 50.6777C92.2986 51.654 93.8816 51.654 94.8579 50.6777L110.768 34.7678ZM65 35.5H109V30.5H65V35.5Z"/></svg>