<svg width="22" height="22" viewBox="0 0 22 22" fill="none" xmlns="http://www.w3.org/2000/svg">
<path d="M4.125 5.07143C4.125 4.47879 3.6502 4 3.0625 4C2.4748 4 2 4.47879 2 5.07143V16.3214C2 17.8013 3.18867 19 4.65625 19H17.9375C18.5252 19 19 18.5212 19 17.9286C19 17.3359 18.5252 16.8571 17.9375 16.8571H4.65625C4.36406 16.8571 4.125 16.6161 4.125 16.3214V5.07143ZM17.6254 7.97098C18.0404 7.55246 18.0404 6.87277 17.6254 6.45424C17.2104 6.03571 16.5363 6.03571 16.1213 6.45424L12.625 9.98326L10.7191 8.06138C10.3041 7.64286 9.63008 7.64286 9.21504 8.06138L5.49629 11.8114C5.08125 12.2299 5.08125 12.9096 5.49629 13.3281C5.91133 13.7467 6.58535 13.7467 7.00039 13.3281L9.96875 10.3382L11.8746 12.26C12.2896 12.6786 12.9637 12.6786 13.3787 12.26L17.6287 7.97433L17.6254 7.97098Z" fill="#848F99"/>
</svg>
