<svg xmlns="http://www.w3.org/2000/svg" width="22" height="22" fill="none" viewBox="0 0 22 22"><path fill="#848F99" fill-rule="evenodd" d="M9 3.95834C5.13401 3.95834 2 7.09235 2 10.9583V11.2083C2 15.0743 5.13401 18.2083 9 18.2083H13C16.866 18.2083 20 15.0743 20 11.2083V10.9583C20 7.09235 16.866 3.95834 13 3.95834H9ZM7.25017 13.7083C7.25017 14.1226 7.58596 14.4583 8.00017 14.4583H14.0273C14.4265 14.4583 14.7502 14.1347 14.7502 13.7355C14.7502 13.3362 14.4265 13.0126 14.0273 13.0126H10.108L14.3017 9.22425C14.4591 9.08205 14.5489 8.87984 14.5489 8.66771V8.45835C14.5489 8.04414 14.2131 7.70835 13.7989 7.70835H7.97304C7.57381 7.70835 7.25017 8.03199 7.25017 8.43122C7.25017 8.83045 7.57381 9.15409 7.97304 9.15409H11.6911L7.49742 12.9424C7.34001 13.0846 7.25017 13.2869 7.25017 13.499V13.7083Z" clip-rule="evenodd"/></svg>