<svg xmlns="http://www.w3.org/2000/svg" width="52" height="52" fill="none" viewBox="0 0 52 52"><g filter="url(#filter0_d_8336_415637)"><path fill="#009BFF" d="M48 22C48 34.1503 38.1503 44 26 44C13.8497 44 4 34.1503 4 22C4 9.84974 13.8497 0 26 0C38.1503 0 48 9.84974 48 22Z"/></g><path stroke="#fff" stroke-width="1.5" d="M14.8564 16.5114C14.8564 10.3954 19.8144 5.4375 25.9303 5.4375C32.0463 5.4375 37.0042 10.3954 37.0042 16.5114V29.3146C37.0042 34.4232 32.8628 38.5646 27.7542 38.5646H24.1064C18.9978 38.5646 14.8564 34.4232 14.8564 29.3146V16.5114Z"/><circle cx="20.256" cy="21.288" r="2.159" stroke="#fff" stroke-width=".75"/><circle cx="20.599" cy="20.918" r="1.082" fill="#fff"/><path stroke="#fff" stroke-linecap="round" d="M23.397 25.8008V25.8008C23.397 26.7337 24.1532 27.4899 25.0861 27.4899H26.7752C27.7081 27.4899 28.4644 26.7337 28.4644 25.8008V25.8008"/><path stroke="#fff" stroke-linecap="round" d="M16.8779 22.4236C17.0187 21.1567 17.8914 18.623 20.2562 18.623C22.621 18.623 23.7752 21.4383 24.0567 22.8459"/><path stroke="#fff" stroke-linecap="round" d="M28.1738 21.0281C28.3011 21.3527 29.0904 22.002 31.2292 22.002C33.3679 22.002 34.4118 21.2806 34.6664 20.9199"/><path stroke="#fff" stroke-linecap="round" stroke-linejoin="round" d="M22.1299 31.2917C22.9744 30.7286 24.3865 29.5751 25.5081 30.8694C26.0712 30.3061 27.5351 29.602 28.8864 31.2917"/><path stroke="#fff" stroke-linecap="round" d="M14.6472 18.2119C12.483 17.4905 9.45314 18.1037 14.6472 26.3277"/><path stroke="#fff" stroke-linecap="round" d="M37.3711 18.2139C39.3549 17.3122 42.1323 17.6729 37.3711 26.3296"/><path stroke="#fff" stroke-linecap="round" stroke-linejoin="round" d="M20.618 5.76953C20.4471 6.65238 21.3355 8.52403 26.2557 8.9478C31.176 9.37157 28.9893 7.71181 27.281 6.82895C28.8186 7.35867 31.7912 7.99432 31.3812 6.29924"/><path stroke="#fff" stroke-linecap="round" stroke-linejoin="round" d="M17.3525 16.5908C18.4346 15.6891 20.9235 14.3184 22.222 16.0498"/><path stroke="#fff" stroke-linecap="round" stroke-linejoin="round" d="M34.125 16.5908C33.0429 15.6891 30.5541 14.3184 29.2556 16.0498"/><path stroke="#fff" stroke-linecap="round" stroke-linejoin="round" d="M17.3525 17.6719L18.4346 18.754"/><path stroke="#fff" stroke-linecap="round" stroke-linejoin="round" d="M31.4199 22L32.502 23.0821"/><path stroke="#fff" stroke-linecap="round" stroke-linejoin="round" d="M19.5166 17.6719L20.5987 18.754"/><path stroke="#fff" stroke-linecap="round" stroke-linejoin="round" d="M33.584 22L34.6661 23.0821"/><path stroke="#fff" stroke-linecap="round" stroke-linejoin="round" d="M23.8452 31.7383C24.5666 32.2793 26.2258 33.0368 27.0915 31.7383"/><path stroke="#fff" stroke-linecap="round" stroke-linejoin="round" stroke-width=".25" d="M18.9756 22.5411L20.5987 20.918"/><path stroke="#fff" stroke-linecap="round" stroke-linejoin="round" stroke-width=".25" d="M20.5986 20.918L21.6807 23.0822"/><path stroke="#fff" stroke-linecap="round" stroke-linejoin="round" stroke-width=".25" d="M20.5987 20.918L20.0576 23.6232"/><defs><filter id="filter0_d_8336_415637" width="52" height="52" x="0" y="0" color-interpolation-filters="sRGB" filterUnits="userSpaceOnUse"><feFlood flood-opacity="0" result="BackgroundImageFix"/><feColorMatrix in="SourceAlpha" result="hardAlpha" type="matrix" values="0 0 0 0 0 0 0 0 0 0 0 0 0 0 0 0 0 0 127 0"/><feOffset dy="4"/><feGaussianBlur stdDeviation="2"/><feColorMatrix type="matrix" values="0 0 0 0 0 0 0 0 0 0 0 0 0 0 0 0 0 0 0.25 0"/><feBlend in2="BackgroundImageFix" mode="normal" result="effect1_dropShadow_8336_415637"/><feBlend in="SourceGraphic" in2="effect1_dropShadow_8336_415637" mode="normal" result="shape"/></filter></defs></svg>