<svg xmlns="http://www.w3.org/2000/svg" width="52" height="52" fill="none" viewBox="0 0 52 52"><g filter="url(#filter0_d_2456_6707)"><path fill="#009BFF" d="M48 22C48 34.1503 38.1503 44 26 44C13.8497 44 4 34.1503 4 22C4 9.84974 13.8497 0 26 0C38.1503 0 48 9.84974 48 22Z"/></g><path fill="#fff" fill-rule="evenodd" d="M12 28.9998C14.7513 26.7512 16.4269 23.7699 16.4269 20.4993C16.4269 17.2293 14.7518 14.2485 12.0013 12C16.4051 13.4466 19.4761 16.7081 19.4761 20.4997C19.4761 24.2917 16.4045 27.5534 12 28.9998Z" clip-rule="evenodd"/><path fill="#fff" fill-rule="evenodd" d="M28.2916 20.2173L36.3035 13.6621C34.3778 11.4201 31.5222 10 28.335 10C22.536 10 17.835 14.701 17.835 20.5C17.835 26.299 22.536 31 28.335 31C31.2867 31 33.9539 29.782 35.8615 27.8213L28.3001 21.7721C27.8032 21.3746 27.7991 20.6203 28.2916 20.2173ZM25.5 17C26.3284 17 27 16.3284 27 15.5C27 14.6716 26.3284 14.5 25.5 14.5C24.6716 14.5 24 14.6716 24 15.5C24 16.3284 24.6716 17 25.5 17Z" clip-rule="evenodd"/><path fill="#fff" d="M20.335 8L22.335 11L24.335 10L20.335 8Z"/><path fill="#fff" d="M24.5586 37.5664L25.5922 32.0775L28.924 32.4707L24.5586 37.5664Z"/><path fill="#fff" d="M35.3054 14.1514L34.0122 15.1419L35.8143 16.1555L35.3054 14.1514Z"/><path fill="#fff" d="M33.6506 15.1972L31.9664 16.487L34.3133 17.8069L33.6506 15.1972Z"/><path fill="#fff" d="M31.6506 16.1972L29.9664 17.487L32.3133 18.8069L31.6506 16.1972Z"/><path fill="#fff" d="M30.0715 18.1343L28.9243 19.0129L30.523 19.9121L30.0715 18.1343Z"/><path fill="#fff" d="M28.9583 23.3005L30.6321 24.6038L31.3156 21.9994L28.9583 23.3005Z"/><path fill="#fff" d="M33.1883 26.9939L34.862 28.2971L35.5456 25.6928L33.1883 26.9939Z"/><path fill="#fff" d="M31.9321 25.022L33.247 26.0459L33.784 23.9999L31.9321 25.022Z"/><defs><filter id="filter0_d_2456_6707" width="52" height="52" x="0" y="0" color-interpolation-filters="sRGB" filterUnits="userSpaceOnUse"><feFlood flood-opacity="0" result="BackgroundImageFix"/><feColorMatrix in="SourceAlpha" result="hardAlpha" type="matrix" values="0 0 0 0 0 0 0 0 0 0 0 0 0 0 0 0 0 0 127 0"/><feOffset dy="4"/><feGaussianBlur stdDeviation="2"/><feColorMatrix type="matrix" values="0 0 0 0 0 0 0 0 0 0 0 0 0 0 0 0 0 0 0.25 0"/><feBlend in2="BackgroundImageFix" mode="normal" result="effect1_dropShadow_2456_6707"/><feBlend in="SourceGraphic" in2="effect1_dropShadow_2456_6707" mode="normal" result="shape"/></filter></defs></svg>