<svg xmlns="http://www.w3.org/2000/svg" width="52" height="52" fill="none" viewBox="0 0 52 52"><g filter="url(#filter0_d_8336_415644)"><path fill="#009BFF" d="M48 22C48 34.1503 38.1503 44 26 44C13.8497 44 4 34.1503 4 22C4 9.84974 13.8497 0 26 0C38.1503 0 48 9.84974 48 22Z"/></g><path stroke="#fff" stroke-linecap="round" d="M10.5 13.1016V15.1694L12.0508 16.2033"/><path stroke="#fff" stroke-linecap="round" d="M41 13.1016V15.1694L39.9661 15.6863"/><path stroke="#fff" stroke-linecap="round" d="M16.1865 13.1016V15.1694L15.1526 15.6863"/><path stroke="#fff" stroke-linecap="round" d="M35.3135 13.1016V15.1694L36.8643 15.6863"/><path stroke="#fff" stroke-width="1.5" d="M19.521 17.2373C19.521 13.6545 22.4255 10.75 26.0083 10.75C29.5911 10.75 32.4956 13.6545 32.4956 17.2373V28.9548C32.4956 30.6343 31.1341 31.9958 29.4546 31.9958H22.562C20.8825 31.9958 19.521 30.6343 19.521 28.9548V17.2373Z"/><path stroke="#fff" d="M28.6104 26.5428C28.6104 27.9797 27.4455 29.1445 26.0087 29.1445C24.5718 29.1445 23.407 27.9797 23.407 26.5428L23.407 23.6135C23.407 23.2234 23.7231 22.9072 24.1132 22.9072L27.9041 22.9072C28.2942 22.9072 28.6104 23.2234 28.6104 23.6135L28.6104 26.5428Z"/><path stroke="#fff" stroke-width="2" d="M22.907 32.7453L22.907 33.7792C22.907 35.4922 24.2956 36.8809 26.0087 36.8809V36.8809C27.7217 36.8809 29.1104 35.4922 29.1104 33.7792L29.1104 32.7453"/><path stroke="#fff" d="M19.2881 18.7891H32.7288"/><circle cx="23.424" cy="15.686" r="1.051" stroke="#fff"/><circle cx="13.601" cy="16.203" r="1.568" stroke="#fff"/><circle cx="38.416" cy="16.203" r="1.568" stroke="#fff"/><circle cx="28.593" cy="15.686" r="1.051" stroke="#fff"/><path stroke="#fff" d="M18.7714 21.373H17.7036C17.1513 21.373 16.7036 21.8208 16.7036 22.373V26.5764C16.7036 27.1287 17.1513 27.5764 17.7036 27.5764H18.7714"/><path stroke="#fff" d="M33.2457 21.373H34.3135C34.8658 21.373 35.3135 21.8208 35.3135 22.373V26.5764C35.3135 27.1287 34.8658 27.5764 34.3135 27.5764H33.2457"/><path stroke="#fff" d="M35.3135 23.9573C36.5197 24.4742 39.4491 23.4403 38.4152 17.7539"/><path stroke="#fff" d="M16.9204 23.9573C15.7142 24.4742 12.7848 23.4403 13.8187 17.7539"/><defs><filter id="filter0_d_8336_415644" width="52" height="52" x="0" y="0" color-interpolation-filters="sRGB" filterUnits="userSpaceOnUse"><feFlood flood-opacity="0" result="BackgroundImageFix"/><feColorMatrix in="SourceAlpha" result="hardAlpha" type="matrix" values="0 0 0 0 0 0 0 0 0 0 0 0 0 0 0 0 0 0 127 0"/><feOffset dy="4"/><feGaussianBlur stdDeviation="2"/><feColorMatrix type="matrix" values="0 0 0 0 0 0 0 0 0 0 0 0 0 0 0 0 0 0 0.25 0"/><feBlend in2="BackgroundImageFix" mode="normal" result="effect1_dropShadow_8336_415644"/><feBlend in="SourceGraphic" in2="effect1_dropShadow_8336_415644" mode="normal" result="shape"/></filter></defs></svg>